<?xml version="1.0" standalone="no"?>
<!DOCTYPE svg PUBLIC "-//W3C//DTD SVG 20010904//EN"
 "http://www.w3.org/TR/2001/REC-SVG-20010904/DTD/svg10.dtd">
<svg version="1.0" xmlns="http://www.w3.org/2000/svg"
 width="128.000000pt" height="128.000000pt" viewBox="0 0 128.000000 128.000000"
 preserveAspectRatio="xMidYMid meet">
<metadata>
Created by potrace 1.11, written by Peter Selinger 2001-2013
</metadata>
<g transform="translate(0.000000,128.000000) scale(0.100000,-0.100000)"
fill="#000000" stroke="none">
<path d="M674 1231 c-23 -10 -51 -33 -63 -50 -13 -17 -44 -42 -71 -56 -133
-67 -184 -226 -116 -357 16 -29 31 -71 33 -93 5 -42 34 -108 61 -139 33 -36
97 -66 153 -70 l54 -4 1 -39 c0 -21 -4 -46 -9 -56 -7 -15 -11 -16 -24 -5 -9 7
-21 13 -27 13 -16 0 -157 56 -182 72 -11 7 -24 10 -27 6 -4 -3 -7 -2 -7 4 0
10 -29 24 -55 26 -20 3 -105 -26 -105 -35 0 -5 -4 -7 -9 -4 -4 3 -17 -1 -27
-9 -10 -8 -27 -15 -36 -15 -10 0 -18 -5 -18 -12 0 -6 -3 -9 -6 -5 -3 3 -21 -3
-39 -13 -18 -10 -49 -17 -69 -16 -21 1 -40 -2 -42 -6 -3 -5 -14 -3 -25 2 -18
10 -19 6 -19 -98 l0 -109 68 0 c37 0 69 3 72 8 3 4 19 2 35 -6 17 -7 73 -32
125 -54 52 -23 107 -48 122 -56 21 -10 28 -11 28 -2 0 9 2 9 8 1 8 -12 30 -20
80 -29 19 -3 37 -6 40 -7 16 -4 102 14 107 23 4 5 11 7 16 3 5 -3 17 0 25 7 8
6 17 9 20 6 4 -3 13 0 21 8 8 8 23 15 34 15 10 0 19 5 19 11 0 5 3 8 8 6 4 -3
18 0 32 6 14 5 32 11 40 13 23 5 203 84 218 96 6 6 12 8 12 4 0 -8 75 39 112
69 15 13 24 26 21 29 -4 3 -2 6 4 6 16 0 2 49 -16 54 -9 3 -27 4 -41 3 -15 -2
-31 5 -39 16 -16 23 -68 20 -95 -5 -22 -20 -26 -18 -30 8 -2 9 -10 18 -20 20
-19 3 -76 -26 -76 -38 0 -5 -5 -8 -12 -8 -6 0 -21 -9 -33 -20 -11 -11 -30 -21
-40 -23 -11 -1 -26 -6 -33 -11 -7 -4 -15 -6 -18 -4 -2 3 -5 47 -7 100 l-4 96
54 -5 c138 -13 255 98 247 234 -1 30 -12 72 -23 94 -19 36 -19 41 -6 80 27 76
16 140 -33 192 -32 34 -73 57 -111 62 -16 2 -40 15 -55 30 -55 55 -130 69
-202 36z"/>
</g>
</svg>
